<?xml version="1.0" standalone="no"?>
<!DOCTYPE svg PUBLIC "-//W3C//DTD SVG 20010904//EN"
 "http://www.w3.org/TR/2001/REC-SVG-20010904/DTD/svg10.dtd">
<svg version="1.0" xmlns="http://www.w3.org/2000/svg"
 width="113.000000pt" height="113.000000pt" viewBox="0 0 113.000000 113.000000"
 preserveAspectRatio="xMidYMid meet">
<metadata>
Created by potrace 1.11, written by Peter Selinger 2001-2013
</metadata>
<g transform="translate(0.000000,113.000000) scale(0.100000,-0.100000)"
fill="#000000" stroke="none">
<path d="M0 945 c0 -102 2 -185 5 -185 12 0 73 35 140 80 144 97 187 111 390
126 91 7 164 -9 228 -52 47 -31 42 -45 -6 -15 -44 27 -58 27 -24 1 64 -50 88
-135 62 -211 -21 -60 -18 -61 12 -4 32 59 43 41 20 -33 -28 -86 -30 -105 -13
-99 9 4 16 2 16 -3 0 -6 -4 -10 -10 -10 -5 0 -10 -13 -10 -29 0 -16 -20 -67
-44 -115 -36 -72 -53 -94 -107 -137 -35 -28 -65 -54 -66 -57 -2 -4 13 -17 32
-30 l35 -22 0 35 c0 44 15 38 24 -8 3 -19 13 -42 21 -53 14 -18 15 -17 9 11
-4 17 -7 32 -6 35 0 3 1 21 2 40 2 32 2 33 9 10 17 -54 62 -138 96 -178 l37
-42 111 0 112 1 -37 32 c-20 18 -51 49 -67 71 -17 21 -31 34 -31 29 0 -6 16
-31 36 -57 20 -26 33 -50 30 -53 -7 -8 -116 108 -116 123 0 4 -6 15 -13 23
-29 33 -66 167 -67 239 0 53 15 55 24 3 6 -40 36 -107 36 -81 0 8 -7 36 -15
62 -9 31 -10 50 -4 54 13 8 11 10 47 -61 17 -33 49 -82 72 -110 41 -49 133
-125 151 -125 5 0 9 60 9 133 l0 132 -39 19 c-49 23 -77 78 -67 132 8 39 71
124 93 124 10 0 13 47 13 220 l0 220 -565 0 -565 0 0 -185z m914 -293 c-18
-48 -65 -103 -72 -84 -1 5 11 32 27 60 17 27 31 52 31 55 0 3 5 18 12 34 11
27 12 27 16 5 2 -12 -4 -44 -14 -70z m-37 -140 c-10 -10 -17 -24 -17 -30 0
-15 -17 -16 -25 -2 -3 5 6 21 21 35 30 28 47 25 21 -3z"/>
<path d="M700 490 c-13 -8 -13 -12 0 -36 8 -15 21 -29 28 -32 15 -5 16 34 1
43 -6 4 -8 13 -5 21 6 16 -3 18 -24 4z"/>
<path d="M740 496 c0 -2 7 -9 15 -16 12 -10 15 -10 15 4 0 9 -7 16 -15 16 -8
0 -15 -2 -15 -4z"/>
<path d="M953 207 c17 -46 127 -162 167 -175 6 -2 10 12 10 32 0 31 -5 38 -40
56 -22 11 -54 33 -72 48 -65 55 -73 59 -65 39z"/>
<path d="M326 173 c-19 -20 -2 -59 51 -114 55 -58 57 -59 110 -59 29 0 53 4
53 9 0 13 -69 92 -111 129 -33 28 -90 48 -103 35z"/>
<path d="M710 70 c0 -22 31 -70 45 -70 12 0 9 10 -11 40 -28 42 -34 47 -34 30z"/>
<path d="M346 32 c-10 -16 12 -34 38 -30 l28 3 -30 18 c-17 9 -33 14 -36 9z"/>
<path d="M255 15 c-30 -13 -30 -13 24 -14 46 -1 52 1 41 14 -15 18 -26 18 -65
0z"/>
</g>
</svg>
